<svg xmlns="http://www.w3.org/2000/svg" xmlns:xlink="http://www.w3.org/1999/xlink" width="127" height="113" viewBox="0 0 127 113">
    <defs>
        <path id="a" d="M.11.678h7.655V8.98H.11z"/>
        <path id="c" d="M0 .303h7.874V4.83H0z"/>
    </defs>
    <g fill="none" fill-rule="evenodd">
        <path fill="#FFF" d="M85.195 0C70.173 0 68.604.446 54.143.446v.226c2.77 4.397 3.936 7.33 4.324 11.935 2.896-.883 6.023-1.418 9.352-1.551V2.122l16.367.111c21.189.112 31.95 12.729 31.95 40.3 0 24.336-9.193 37.065-33.071 37.4l-15.246.222v-66.9c-3.484.104-6.555.772-9.234 1.92.029.796.042 1.108.042 2.016V65.42c0 7.59-.897 10.827-4.484 16.522v.223h29.93c27.243 0 42.6-14.735 42.6-41.195C126.672 14.513 111.09 0 85.194 0"/>
        <path fill="#FFF" d="M67.819 71.975l-.051.001c-16.155 0-23.598-13.056-23.598-30.49 0-17.352 7.612-30.323 24.611-30.323 9.643 0 15.648 4.467 22.5 15.414l.676-.167-1.69-12.804C85.952 11.839 78 9.478 69.46 9.478c-19.963 0-33.241 14.066-33.241 32.008 0 18.024 11.925 32.172 31.378 32.172l.22-.002v-1.68zM91.62 53.025C86.88 63.88 81.225 70.986 70.405 71.879v1.697c9.912-.612 18.014-4.603 20.197-6.233l1.693-14.066-.677-.252z"/>
        <path fill="#A48DB9" d="M90.503 102.237l2.501-1.741-1.096-1.56-2.352 1.64-.834-1.19 2.352-1.639-1.706-2.424 1.493-1.04 4.468 6.363-3.99 2.78zM84.33 105.406c.276.05.555-.049.929-.233l.648-.32-.886-1.784-.648.32c-.374.184-.619.354-.746.606-.137.256-.185.517-.003.88.175.352.416.485.705.531zm-5.151-4.328l1.904-.938 2.79 1.939.516-.255-1.322-2.661 1.64-.809 3.456 6.957-2.511 1.237c-.779.385-1.467.522-2.087.415-.636-.114-1.215-.519-1.56-1.215-.658-1.32-.063-2.253.373-2.67l-3.2-2zM75.387 108.957c1.248-.354 1.937-1.52 1.529-2.947-.41-1.428-1.613-2.067-2.862-1.713-1.249.354-1.934 1.53-1.526 2.958.406 1.417 1.61 2.057 2.859 1.702m-1.78-6.218c2.226-.631 4.387.31 5.077 2.722.69 2.411-.643 4.356-2.87 4.989-2.225.631-4.389-.321-5.079-2.733-.69-2.41.647-4.345 2.873-4.978"/>
        <g transform="translate(60.118 103.702)">
            <mask id="b" fill="#fff">
                <use xlink:href="#a"/>
            </mask>
            <path fill="#A48DB9" d="M.11 1.248l1.868-.151 3.84 4.967s-.112-.928-.179-1.746L5.355.823 7.133.678l.632 7.732-1.948.157L2.063 3.64s.103.87.17 1.69l.288 3.506-1.778.146L.11 1.248z" mask="url(#b)"/>
        </g>
        <path fill="#A48DB9" d="M51.655 110.717l2.003.167.53-6.297 1.824.152-.531 6.298 2.003.167-.12 1.435-5.829-.488zM47.278 105.814l3.088.613-.275 1.377-3.088-.612zM40.308 101.276l4.88 1.644-2.496 7.353-4.784-1.611.466-1.375 3.06 1.031.51-1.502-2.888-.973.466-1.376 2.891.973.579-1.705-3.158-1.063zM31.715 96.943l1.646.893.476 6.251s.418-.836.812-1.556l1.687-3.08 1.566.849-3.728 6.813-1.715-.931-.429-6.173s-.391.785-.785 1.506l-1.69 3.09-1.568-.85 3.728-6.812zM22.37 97.028c.06.441.324.974.911 1.45l.719.582 2.989-3.655-.718-.582c-.587-.477-1.165-.626-1.618-.587-.447.03-1.056.203-1.662.945-.606.741-.676 1.396-.621 1.847m2.041-4.511c.843-.014 1.865.321 2.916 1.175l2.05 1.662-4.923 6.02-2.05-1.663c-1.052-.853-1.588-1.782-1.738-2.614-.166-.831-.067-1.912.888-3.081.956-1.17 2-1.484 2.857-1.5M12.454 86.2c-.052.443.066 1.025.512 1.634l.547.746 3.824-2.78-.546-.745c-.445-.61-.966-.9-1.416-.978-.44-.085-1.073-.07-1.848.494-.776.564-1.011 1.18-1.073 1.63m3.127-3.848c.818.2 1.721.783 2.52 1.874l1.56 2.128-6.299 4.577-1.56-2.127c-.799-1.091-1.08-2.126-1.014-2.969.053-.845.424-1.867 1.646-2.755 1.224-.89 2.313-.93 3.147-.728M12.065 74.041l2.307 4.585-6.967 3.48-2.263-4.496 1.302-.65 1.45 2.875 1.422-.71-1.366-2.716 1.303-.65 1.366 2.715 1.615-.807-1.493-2.966zM1.61 67.502l8.297.442.517 1.653-6.578 5.055-.578-1.846 4.576-3.327-5.66-.14zM7.959 57.999l.718 5.073-7.71 1.082-.703-4.974 1.442-.202.449 3.182 1.575-.22-.424-3.005 1.442-.202.424 3.004 1.788-.25-.465-3.283z"/>
        <g transform="translate(0 50.57)">
            <mask id="d" fill="#fff">
                <use xlink:href="#c"/>
            </mask>
            <path fill="#A48DB9" d="M7.874.327L7.801 4.83l-7.802-.126.031-1.812 6.285.102.043-2.69z" mask="url(#d)"/>
        </g>
        <path fill="#A48DB9" d="M2.202 44.308c-.204 1.276.565 2.39 2.037 2.624 1.472.234 2.563-.582 2.768-1.859.205-1.276-.576-2.391-2.048-2.626-1.46-.232-2.552.583-2.757 1.86m6.41 1.022c-.366 2.275-2.136 3.827-4.622 3.43-2.484-.396-3.691-2.42-3.325-4.696.363-2.276 2.145-3.825 4.631-3.43 2.487.397 3.682 2.42 3.316 4.696M5.152 33.683c-.225.16-.364.386-.493.759l-.236.67 1.975.686.235-.67c.13-.373.163-.635.087-.9-.078-.254-.292-.496-.667-.625-.372-.13-.681-.07-.901.08m3.017-.442c.233.63.149 1.351-.117 2.106l-.315.904 2.722.945-.603 1.722-7.367-2.559.92-2.626c.264-.754.648-1.372 1.226-1.72.577-.348 1.239-.428 2.03-.154.79.275 1.258.748 1.504 1.382M16.96 23.905l-.897 1.549-4.75-2.376-.012.018 3.763 4.082-.721 1.247-5.44-1.188-.016.03 4.456 2.882-.896 1.55-6.456-4.381 1.15-1.989 5.254 1.148.01-.02-3.64-3.933 1.156-1.998zM21.962 18.023l-3.35 3.895-5.918-5.046 3.284-3.818 1.106.944-2.1 2.442 1.208 1.031 1.983-2.306 1.106.944-1.982 2.306 1.373 1.17 2.165-2.52zM29.168 11.677l-1.44 1.193L21.722 11s.624.695 1.15 1.328l2.25 2.697-1.37 1.135-4.978-5.966 1.503-1.242 5.915 1.884s-.587-.652-1.114-1.283L22.82 6.847l1.371-1.135 4.977 5.965zM32.89 2.061l-1.736 1.005 3.184 5.46-1.58.914-3.185-5.46-1.738 1.004-.724-1.244L32.164.817z"/>
    </g>
</svg>
